<svg width="753" height="538" viewBox="0 0 753 538" fill="none" xmlns="http://www.w3.org/2000/svg">
<g opacity="0.9" clip-path="url(#clip0)">
<path d="M350.075 454.076C327.725 454.156 305.374 454.712 283.103 457.173C274.702 458.126 266.46 460.19 258.058 460.984C241.256 462.651 224.691 465.748 207.81 467.177C194.178 468.289 180.546 469.003 166.993 470.432C154.312 471.782 140.204 471.465 127.603 469.241C118.25 467.574 108.898 466.621 99.7044 463.922C89.4011 460.905 78.2259 458.761 67.5263 458.84C52.2299 458.92 37.409 458.999 22.7465 464.239C17.5949 466.066 11.3336 469.162 7.45009 473.053C-1.58513 482.104 -2.77397 504.415 6.10273 513.704C21.0822 529.346 53.1017 535.459 74.1046 535.777C97.1682 536.094 119.518 534.348 142.582 533.395C163.981 532.442 185.38 531.092 206.859 531.172C250.688 531.251 294.595 531.172 338.345 528.234C379.479 525.455 420.692 526.408 461.905 526.408C504.149 526.408 546.155 526.725 588.081 532.363C606.39 534.824 625.015 535.697 643.402 537.365C659.888 538.873 675.66 537.365 692.066 535.936C705.856 534.745 719.488 531.172 732.011 525.217C741.918 520.453 759.513 505.764 762.604 494.411C771.084 462.731 642.689 463.445 622.954 463.525C600.921 463.604 578.65 464.319 556.617 463.525C547.344 463.207 538.229 461.381 529.194 459.396C520.159 457.411 511.124 457.888 501.93 457.094C463.808 453.6 425.606 454.156 387.405 454.156C374.961 454.076 362.518 453.997 350.075 454.076Z" fill="#F1F2F2"/>
<path d="M225.88 217.391C225.643 217.391 225.405 217.471 225.246 217.55C223.265 218.106 222.789 220.17 221.204 221.123C220.491 221.599 218.034 221.202 218.272 222.552C218.351 223.029 218.589 224.775 218.827 226.443C218.51 227.872 218.351 229.301 217.955 230.651C216.924 234.144 210.584 240.258 214.23 243.672C214.943 244.307 215.656 245.022 216.528 245.419C217.241 245.736 218.034 245.816 218.827 245.895C219.461 245.895 220.412 246.133 220.887 245.736C221.363 245.339 221.6 243.751 221.838 243.196C222.472 241.449 223.106 239.782 223.82 238.035C224.454 236.367 225.405 234.383 227.148 234.065C227.545 233.986 227.941 233.986 228.337 233.906C228.734 233.747 229.13 233.43 229.447 233.112C230.636 232.001 231.745 230.73 232.617 229.38C234.202 226.919 232.379 222.711 231.587 220.25C231.349 219.614 231.111 219.059 230.715 218.582C230.002 217.868 228.813 217.709 227.782 217.63C227.148 217.391 226.514 217.312 225.88 217.391Z" fill="#EAC5B0"/>
<path d="M202.103 277.575C209.95 270.985 216.845 263.363 222.631 254.947C224.85 251.691 229.13 247.086 227.228 242.878C225.246 238.591 216.211 236.368 212.09 235.415C205.036 247.324 192.83 268.682 175.87 256.693C171.431 253.517 168.182 248.198 162.872 247.324C159.464 246.769 155.976 248.277 153.678 250.818C144.643 260.663 153.202 272.494 160.969 279.798C169.212 287.579 182.448 289.167 192.593 284.086C195.604 282.577 198.378 280.513 200.994 278.369C201.39 278.21 201.786 277.893 202.103 277.575Z" fill="#D1E7F5"/>
<path d="M149.874 135.532C181.127 135.532 206.463 110.045 206.463 78.6039C206.463 47.1633 181.127 21.6756 149.874 21.6756C118.62 21.6756 93.2846 47.1633 93.2846 78.6039C93.2846 110.045 118.62 135.532 149.874 135.532Z" fill="#7DB5DB"/>
<path d="M177.772 90.593C173.333 90.593 169.529 93.2131 167.786 96.9448L143.85 93.6895C143.692 89.3226 141.71 85.4321 138.778 82.6532L152.251 63.1213C153.836 63.7565 155.58 64.1535 157.403 64.1535C164.695 64.1535 170.559 58.1987 170.559 50.9734C170.559 43.6688 164.615 37.7934 157.403 37.7934C150.111 37.7934 144.246 43.7482 144.246 50.9734C144.246 54.07 145.356 56.9283 147.179 59.2308L133.309 79.3185C131.645 78.7627 129.901 78.4451 128.078 78.4451C119.281 78.4451 112.148 85.5909 112.148 94.4041C112.148 103.217 119.281 110.363 128.078 110.363C134.815 110.363 140.521 106.234 142.899 100.28L166.993 103.535C167.865 108.775 172.462 112.745 177.93 112.745C184.033 112.745 189.026 107.743 189.026 101.629C189.026 95.5157 183.875 90.593 177.772 90.593Z" fill="white"/>
<path d="M451.127 228.745C451.364 228.666 451.523 228.666 451.761 228.586C453.821 228.428 454.931 230.095 456.675 230.413C457.467 230.571 459.607 229.38 459.845 230.651C459.924 231.127 460.4 232.795 460.717 234.383C461.509 235.574 462.143 236.764 463.015 237.876C465.234 240.655 473.081 243.99 471.02 248.436C470.624 249.309 470.227 250.183 469.514 250.818C468.959 251.374 468.246 251.691 467.533 252.009C466.978 252.247 466.185 252.803 465.63 252.565C465.076 252.326 464.283 251.056 463.808 250.58C462.619 249.23 461.43 247.88 460.162 246.53C458.973 245.181 457.467 243.751 455.723 244.069C455.327 244.148 455.01 244.307 454.614 244.307C454.218 244.307 453.742 244.148 453.346 243.99C451.84 243.354 450.413 242.64 449.145 241.687C446.847 240.02 447.005 235.494 446.926 232.953C446.926 232.318 446.926 231.683 447.164 231.127C447.56 230.174 448.511 229.698 449.462 229.222C449.938 229.142 450.493 228.904 451.127 228.745Z" fill="#EAC5B0"/>
<path d="M495.114 277.654C492.895 277.496 490.596 277.337 488.456 276.543C486.792 275.908 485.207 274.955 483.701 274.002C474.349 267.809 465.948 260.187 458.973 251.453C461.905 247.086 465.63 243.275 470.069 240.337C477.281 245.975 485.048 251.135 493.053 255.582C494.718 256.455 496.382 257.408 498.205 257.805C500.82 258.44 503.594 258.123 506.289 257.726C516.671 256.376 527.133 255.026 537.516 253.597C543.777 252.803 550.355 251.929 556.379 253.835C573.181 259.075 569.06 280.91 552.733 282.18C534.346 283.609 513.581 279.004 495.114 277.654Z" fill="#7DB5DB"/>
<path d="M140.759 499.969L140.363 504.574L137.351 508.305C137.351 508.305 136.479 513.943 138.144 514.895C139.808 515.848 165.646 518.945 165.646 518.945L168.34 514.975L166.2 510.608L152.568 504.335L147.892 499.095L140.759 499.969Z" fill="#3B455A"/>
<path d="M167.785 490.044L167.389 494.649L164.377 498.38C164.377 498.38 163.506 504.018 165.17 504.97C166.834 505.923 192.276 509.02 192.276 509.02L194.891 505.05L192.83 500.683L179.357 494.411L174.76 489.17L167.785 490.044Z" fill="#3B455A"/>
<path d="M136.638 409.693C138.857 414.378 140.838 418.586 141.235 424.62C141.552 430.575 140.521 436.45 139.65 442.326C136.717 462.651 137.034 483.295 137.351 503.859C144.405 504.177 151.538 504.335 158.592 504.335C159.781 504.335 161.128 504.256 161.921 503.383C162.713 502.509 162.634 501.08 162.475 499.889C160.811 485.28 160.969 470.512 161.207 455.823C161.286 448.598 161.524 442.405 163.03 435.418C164.536 428.51 164.219 421.285 163.743 414.298C162.555 397.069 159.067 380.236 158.116 363.007C157.958 359.911 157.641 356.576 155.659 354.194C153.202 351.336 149.081 350.78 145.356 350.78C135.053 350.78 123.402 352.447 122.926 364.913C122.768 369.121 123.878 373.17 124.987 377.219C127.682 386.429 130.535 395.719 134.26 404.532C135.053 406.358 135.845 408.105 136.638 409.693Z" fill="#BCBEC0"/>
<path d="M165.408 401.833C167.548 406.597 169.45 410.963 169.529 416.998C169.608 422.953 168.103 428.749 166.914 434.624C162.792 454.791 162 475.435 161.286 495.999C168.816 496.634 176.266 497.19 183.795 497.507C185.063 497.587 186.49 497.587 187.441 496.713C188.313 495.84 188.313 494.49 188.234 493.299C187.045 475.038 185.618 456.776 186.965 438.515C187.441 431.527 188.313 424.541 188.709 417.553C189.502 403.976 188.392 390.32 186.728 376.822C185.697 368.486 187.124 350.7 178.723 345.619C174.919 343.316 170.084 342.999 165.646 343.713C163.347 344.031 161.128 344.666 159.226 345.857C155.501 348.16 153.599 352.368 153.202 356.576C152.806 360.705 153.757 364.913 154.787 368.962C157.165 378.252 159.781 387.7 163.268 396.672C163.902 398.419 164.615 400.165 165.408 401.833Z" fill="#BCBEC0"/>
<path d="M133.309 246.054C126.889 250.818 122.689 259.075 122.134 267.65C121.5 278.051 118.805 288.452 117.933 298.933C116.19 319.576 116.586 340.299 119.043 360.863C119.281 363.166 119.756 365.707 121.579 367.056C123.64 368.565 126.572 367.93 129.029 367.136C148.526 361.34 168.578 357.29 188.788 354.829C189.977 354.67 184.826 305.92 184.271 301.474C182.369 285.594 179.436 269.079 169.291 256.058C165.012 250.58 159.622 245.736 153.123 243.275C145.673 240.496 138.698 242.084 133.309 246.054Z" fill="#D1E7F5"/>
<path d="M162.555 212.866C162.792 217.074 163.03 221.52 160.89 225.172C159.067 228.269 155.897 230.254 153.519 232.874C152.013 234.462 150.825 236.526 150.508 238.749C150.27 240.893 151.379 242.799 151.379 244.942C151.379 245.181 151.379 245.339 151.3 245.498C151.221 245.657 150.983 245.816 150.825 245.895C149.874 246.451 148.685 246.451 147.575 246.451C146.228 246.451 144.801 246.61 143.533 246.451C141.789 246.213 142.186 245.895 142.027 244.149C141.789 241.528 141.472 238.988 140.601 236.447C138.857 231.365 135.211 226.999 134.181 221.6C132.992 215.645 134.736 209.849 136.638 204.211C137.51 201.671 138.381 199.13 140.125 197.066C143.929 192.619 152.806 191.19 157.086 195.716C162 201.274 162.079 205.72 162.555 212.866Z" fill="#EAC5B0"/>
<path d="M161.207 210.007C163.981 213.818 164.377 219.138 162.317 223.346C165.487 221.123 166.993 217.153 167.627 213.263C167.944 211.119 168.103 208.975 167.865 206.831C167.072 200.083 161.762 193.89 155.025 192.937C150.587 192.381 150.587 198.018 152.331 200.797C154.708 204.37 158.671 206.514 161.207 210.007Z" fill="#3B455A"/>
<path d="M149.398 189.364C146.941 188.173 144.009 188.094 141.314 188.332C137.51 188.649 129.98 189.761 125.463 192.619C122.926 187.22 115.635 183.092 110.325 185.95C107.234 187.617 105.886 191.19 107.313 193.969C107.709 194.684 108.185 195.319 108.819 195.875C109.374 196.351 110.008 196.669 110.483 197.145C112.306 199.05 110.642 201.75 109.294 203.894C107.789 206.355 106.758 208.975 106.283 211.595C105.966 213.104 105.886 214.692 106.6 216.121C107.313 217.55 108.977 218.741 110.88 218.662C114.288 218.503 114.922 215.645 115.08 213.025C115.318 210.007 115.793 207.387 117.141 204.529C117.616 203.497 118.33 202.385 119.439 202.147C119.677 202.068 119.835 202.068 120.073 202.068C119.36 204.608 118.964 207.149 119.281 209.928C120.073 215.486 122.134 220.964 125.542 225.49C128.95 230.016 133.785 233.509 139.174 235.018C139.57 231.604 135.924 228.984 135.29 225.569C134.894 223.743 135.528 221.838 136.479 220.17C137.43 218.582 138.778 217.233 140.125 215.883C142.423 213.58 144.643 211.278 146.941 208.975C148.764 207.07 150.666 205.244 152.093 202.941C154.946 198.415 154.867 191.984 149.398 189.364Z" fill="#3B455A"/>
<path d="M344.844 286.865C418.906 286.865 478.946 226.718 478.946 152.523C478.946 78.3287 418.906 18.1821 344.844 18.1821C270.782 18.1821 210.742 78.3287 210.742 152.523C210.742 226.718 270.782 286.865 344.844 286.865Z" fill="#305399"/>
<path d="M452.474 106.076C446.609 91.8634 438.129 79.0803 427.429 68.1234C416.729 57.1665 404.207 48.5915 390.258 42.5573C375.833 36.3642 360.537 33.1883 344.765 33.1883C328.993 33.1883 313.696 36.3642 299.272 42.5573C285.323 48.5915 272.879 57.1665 262.1 68.1234C251.401 79.0803 242.92 91.8634 237.055 106.076C230.953 120.764 227.862 136.406 227.862 152.523C227.862 168.641 230.953 184.282 237.055 198.971C242.92 213.183 251.401 225.966 262.1 236.923C272.8 247.88 285.323 256.455 299.272 262.489C313.696 268.682 328.993 271.858 344.765 271.858C360.537 271.858 375.833 268.682 390.258 262.489C404.207 256.455 416.65 247.88 427.429 236.923C438.129 225.966 446.609 213.183 452.474 198.971C458.577 184.282 461.668 168.641 461.668 152.523C461.668 136.406 458.577 120.844 452.474 106.076ZM449.858 152.523C449.858 161.337 448.828 169.911 446.847 178.248H411.736C413.876 168.562 414.906 158.716 414.906 148.871C414.906 139.581 413.955 130.451 412.133 121.479H445.42C448.353 131.403 449.858 141.884 449.858 152.523ZM419.107 76.619C428.539 86.2261 435.909 97.3418 441.14 109.49H408.962C407.773 105.679 406.426 102.026 404.92 98.2946C399.61 85.5909 392.318 73.6018 383.045 62.5655C378.29 56.8489 373.535 52.085 369.176 48.1151C387.959 52.6408 405.158 62.4067 419.107 76.619ZM350.709 48.2739C356.178 52.3232 365.213 59.7072 374.169 70.4259C382.57 80.5095 389.307 91.4664 394.141 103.058C395.013 105.202 395.885 107.346 396.598 109.49H350.709V48.2739ZM400.086 121.479C402.146 130.371 403.177 139.502 403.177 148.871C403.177 158.796 401.988 168.641 399.689 178.248H350.709V121.479H400.086ZM288.017 148.871C288.017 139.502 289.048 130.371 291.108 121.479H338.9V178.248H291.504C289.206 168.641 288.017 158.796 288.017 148.871ZM338.979 49.4649V109.49H294.675C295.388 107.425 296.181 105.361 297.052 103.297C301.808 91.784 308.465 80.827 316.866 70.7435C325.03 60.8188 333.273 53.7524 338.979 49.4649ZM270.502 76.619C285.005 61.851 302.917 51.9262 322.494 47.6387C318.055 51.688 313.062 56.6901 308.069 62.5655C298.875 73.6018 291.505 85.5909 286.194 98.2946C284.688 101.947 283.341 105.679 282.152 109.49H248.468C253.699 97.4212 261.07 86.3055 270.502 76.619ZM244.189 121.479H279.061C277.159 130.371 276.287 139.502 276.287 148.871C276.287 158.796 277.318 168.562 279.458 178.248H242.762C240.78 169.911 239.75 161.337 239.75 152.523C239.75 141.884 241.256 131.403 244.189 121.479ZM270.502 228.428C259.723 217.391 251.559 204.45 246.408 190.237H282.628C283.658 193.651 284.926 197.066 286.194 200.4C291.425 213.66 298.717 226.522 307.911 238.511C313.934 246.372 319.878 252.882 324.951 257.884C304.503 253.994 285.64 243.831 270.502 228.428ZM317.184 231.207C308.703 220.012 301.887 208.181 297.052 195.954C296.339 194.048 295.626 192.143 294.992 190.317H338.9V254.788C333.352 249.786 325.268 241.846 317.184 231.207ZM350.709 256.058V190.317H396.202C395.568 192.143 394.934 193.969 394.221 195.795C389.386 208.022 382.728 219.853 374.248 230.968C365.292 242.64 356.336 251.215 350.709 256.058ZM419.107 228.428C404.524 243.355 386.374 253.359 366.56 257.567C371.553 252.565 377.418 246.213 383.204 238.591C392.398 226.522 399.689 213.739 404.92 200.48C406.268 197.145 407.456 193.731 408.487 190.317H443.122C438.049 204.45 429.886 217.391 419.107 228.428Z" fill="white"/>
<path d="M632.148 497.745C630.88 499.254 629.215 500.365 627.789 501.715C622.558 497.348 617.723 492.981 613.443 487.582C617.406 487.106 618.12 483.692 622.716 487.344C624.143 488.456 629.612 496.078 632.148 497.745Z" fill="#EAC5B0"/>
<path d="M624.619 499.571C623.667 500.365 623.509 501.239 623.509 502.35C623.509 502.986 623.747 503.621 623.588 504.256C623.43 504.891 623.113 505.368 622.716 505.923C620.577 508.861 614.87 514.816 622.32 515.61C629.057 516.325 634.605 506.955 637.617 501.477C637.854 501.08 638.092 500.762 638.013 500.365C638.013 499.968 637.775 499.492 637.537 499.095C636.111 496.872 634.367 494.014 631.435 495.602C630.167 496.316 630.008 497.825 628.661 498.539C627.63 499.095 625.57 498.857 624.619 499.571Z" fill="#3B455A"/>
<path d="M603.933 385.397C604.805 398.816 592.916 418.347 596.324 429.304C603.457 452.171 610.986 465.192 623.985 483.295C624.936 484.565 628.027 487.503 629.295 489.091C626.124 493.299 622.399 496.157 618.278 499.73C599.177 483.374 582.137 472.814 569.773 447.883C560.025 428.193 556.617 396.195 551.544 372.932C550.673 369.041 549.404 363.563 551.941 359.99C553.922 357.29 556.617 356.099 560.104 355.306C569.456 353.082 582.216 348.16 590.935 354.035C600.604 360.466 603.299 375.155 603.933 385.397Z" fill="#587BC9"/>
<path d="M516.751 510.131C514.769 510.528 512.709 510.37 510.727 510.528C509.142 503.541 507.874 496.634 507.716 489.329C511.282 491.632 513.897 489.488 515.245 495.443C515.72 497.348 515.641 507.114 516.751 510.131Z" fill="#EAC5B0"/>
<path d="M509.459 506.797C508.191 506.797 507.557 507.511 506.844 508.385C506.447 508.861 506.21 509.576 505.734 510.052C505.259 510.528 504.704 510.608 503.99 510.767C500.424 511.64 492.181 512.91 497.571 518.151C502.485 522.914 512.629 519.024 518.494 516.563C518.891 516.404 519.287 516.245 519.525 515.927C519.762 515.61 519.921 515.054 519.921 514.578C520.238 511.957 520.634 508.464 517.385 507.908C515.958 507.67 514.769 508.782 513.263 508.464C512.154 508.305 510.648 506.797 509.459 506.797Z" fill="#3B455A"/>
<path d="M569.298 404.453C559.629 414.139 531.969 421.206 527.451 432.321C525.628 436.768 519.684 469.797 518.812 493.061C518.733 494.728 519.525 499.016 519.525 501.239C514.374 502.747 509.698 502.43 504.15 502.827C500.108 476.07 495.907 429.146 495.907 429.146C501.376 405.723 527.927 378.887 542.668 357.767C545.125 354.273 547.979 349.509 552.338 348.874C555.666 348.398 558.361 349.589 561.373 351.574C569.457 356.814 581.821 362.69 583.565 373.17C585.546 384.603 576.669 396.989 569.298 404.453Z" fill="#587BC9"/>
<path d="M565.097 259.155C573.974 266.936 581.345 278.051 586.576 290.12C595.769 311.557 599.336 336.091 602.665 360.069C603.774 368.089 604.884 376.028 606.073 384.048C607.182 391.908 606.944 393.734 600.445 394.29C588.557 395.401 575.955 395.243 564.463 390.876C558.994 388.811 553.684 385.794 548.057 384.524C539.894 382.618 532.285 386.429 524.359 385.874C525.152 377.458 527.054 369.518 527.213 360.863C527.371 352.209 526.816 343.555 526.103 334.98C524.756 319.973 524.122 304.888 522.854 289.882C521.982 279.163 519.763 270.747 527.054 261.695C531.017 256.773 538.308 248.198 544.887 248.277C551.861 248.515 560.183 254.788 565.097 259.155Z" fill="#7DB5DB"/>
<path d="M526.262 245.101C528.718 247.404 531.73 248.912 534.504 250.818C537.199 252.644 538.705 254.708 540.369 257.408C541.558 259.393 542.985 260.743 545.679 260.028C550.752 258.758 547.74 255.344 547.661 252.009C547.581 248.198 549.167 244.545 549.801 240.814C551.703 230.174 543.381 213.977 530.858 214.93C517.147 216.042 518.891 238.114 526.262 245.101Z" fill="#EAC5B0"/>
<path d="M542.668 226.681C544.015 227.554 544.808 229.46 544.015 230.968C543.619 231.762 542.826 232.318 542.351 233.033C541.003 235.177 542.588 238.114 544.57 239.702C546.551 241.29 549.087 242.402 550.435 244.625C557.251 239.067 562.561 231.048 563.036 222.155C563.353 215.803 560.817 209.134 556.141 204.847C550.593 199.765 544.966 200.083 537.754 199.447C534.742 199.209 531.73 198.971 528.877 199.844C526.262 200.638 524.042 202.306 521.427 203.179C517.147 204.608 511.758 204.132 508.984 207.705C507.399 209.769 507.319 212.707 508.191 215.168C509.063 217.63 510.807 219.694 512.629 221.52C515.086 224.061 517.781 226.284 520.714 228.269C519.366 227.316 524.122 221.996 525.231 221.758C527.847 221.202 531.889 224.14 534.504 224.775C537.04 225.331 540.369 225.252 542.668 226.681Z" fill="#3B455A"/>
<path d="M355.147 216.915L396.836 389.764L430.679 355.544L470.941 408.184L490.2 393.416L509.38 378.648L469.118 326.087L510.886 302.188L355.147 216.915Z" fill="#3B455A"/>
<path d="M512.075 375.949C507.557 369.994 503.04 364.119 498.522 358.164C491.31 348.716 484.097 339.267 476.806 329.819C475.538 328.151 474.27 326.484 473.001 324.817C484.652 318.147 496.303 311.478 507.953 304.808C509.697 303.776 511.441 302.824 513.184 301.791C514.452 301.077 513.818 299.33 512.867 298.774C507.716 295.916 502.485 293.137 497.333 290.279C484.89 283.45 472.526 276.702 460.083 269.873C445.103 261.695 430.124 253.517 415.224 245.339C402.305 238.273 389.307 231.207 376.388 224.061C372.108 221.679 367.828 219.376 363.469 216.994C361.488 215.883 359.506 214.612 357.367 213.66C357.287 213.58 357.208 213.58 357.129 213.501C356.495 213.104 355.861 213.263 355.464 213.66C354.91 213.898 354.513 214.454 354.751 215.327C356.098 221.044 357.525 226.84 358.872 232.556C362.201 246.372 365.53 260.107 368.859 273.923C372.901 290.517 376.864 307.111 380.906 323.705C384.393 338.076 387.801 352.447 391.288 366.818C392.953 373.805 394.617 380.872 396.361 387.859C396.361 387.938 396.44 388.097 396.44 388.176C396.836 389.685 398.421 390.161 399.531 389.05C409.438 379.125 419.266 369.121 429.173 359.196C430.045 358.323 430.996 357.37 431.867 356.497C435.989 361.896 440.11 367.295 444.231 372.694C451.444 382.142 458.656 391.59 465.948 401.039C467.612 403.182 469.276 405.406 470.941 407.549C471.496 408.264 472.605 408.502 473.398 407.867C483.622 400.007 493.767 392.226 503.991 384.365C506.606 382.38 509.222 380.316 511.837 378.331C512.471 377.855 512.63 376.743 512.075 375.949ZM479.025 399.133C476.885 400.801 474.745 402.468 472.526 404.135C468.325 398.657 464.204 393.258 460.003 387.779C452.791 378.331 445.579 368.883 438.287 359.434C436.623 357.29 434.958 355.067 433.294 352.924C432.581 351.971 431.313 352.13 430.52 352.844C420.613 362.769 410.785 372.773 400.878 382.698C400.244 383.333 399.61 383.968 398.976 384.603C397.866 379.919 396.757 375.234 395.568 370.629C392.239 356.814 388.911 343.078 385.582 329.263C381.54 312.669 377.577 296.075 373.535 279.481C370.048 265.11 366.64 250.739 363.152 236.368C361.726 230.492 360.299 224.537 358.872 218.662C362.914 220.885 367.036 223.108 371.078 225.331C383.521 232.159 395.885 238.908 408.328 245.736C423.308 253.914 438.287 262.092 453.187 270.27C466.106 277.337 479.104 284.403 492.023 291.549C496.303 293.931 500.583 296.234 504.942 298.615C506.051 299.251 507.161 299.965 508.35 300.6C497.095 307.032 485.762 313.542 474.507 319.973C472.764 321.006 471.02 321.958 469.276 322.991C468.484 323.467 468.405 324.737 468.959 325.452C473.477 331.407 477.995 337.282 482.512 343.237C489.724 352.685 496.937 362.134 504.228 371.582C505.576 373.329 506.844 374.996 508.191 376.743C498.522 384.127 488.773 391.67 479.025 399.133Z" fill="white"/>
<path d="M450.493 354.909C450.572 354.67 450.651 354.512 450.73 354.273C451.602 352.447 453.663 352.368 454.852 351.018C455.406 350.383 455.486 348.001 456.675 348.477C457.15 348.636 458.735 349.112 460.32 349.668C461.747 349.589 463.094 349.668 464.521 349.509C468.008 349.033 474.983 344.031 477.677 348.08C478.232 348.874 478.708 349.668 478.946 350.621C479.104 351.336 479.104 352.13 479.025 352.924C478.946 353.559 479.025 354.512 478.549 354.829C478.074 355.226 476.489 355.226 475.934 355.385C474.19 355.703 472.367 356.1 470.624 356.417C468.88 356.735 466.899 357.29 466.265 358.958C466.106 359.355 466.106 359.752 465.868 360.069C465.631 360.466 465.313 360.705 464.996 361.022C463.728 361.975 462.302 362.848 460.875 363.484C458.26 364.595 454.455 362.134 452.236 360.943C451.681 360.625 451.127 360.308 450.73 359.831C450.176 359.037 450.176 357.926 450.255 356.893C450.255 356.1 450.334 355.464 450.493 354.909Z" fill="#EAC5B0"/>
<path d="M515.007 342.125C513.739 343.952 512.392 345.857 510.648 347.286C509.221 348.398 507.636 349.271 505.972 350.065C495.906 354.908 485.048 358.243 473.952 359.752C471.654 354.988 470.386 349.748 470.069 344.507C478.629 341.173 486.95 337.203 494.876 332.518C496.461 331.566 498.126 330.613 499.473 329.263C501.375 327.357 502.485 324.737 503.594 322.276C507.795 312.589 511.916 302.982 516.117 293.296C518.653 287.5 521.268 281.466 526.024 277.178C539.101 265.427 555.745 280.195 548.453 294.884C540.211 311.478 525.627 327.04 515.007 342.125Z" fill="#7DB5DB"/>
<path d="M550.989 140.217C589.64 140.217 620.973 108.828 620.973 70.1083C620.973 31.3886 589.64 0 550.989 0C512.339 0 481.006 31.3886 481.006 70.1083C481.006 108.828 512.339 140.217 550.989 140.217Z" fill="#587BC9"/>
<path d="M600.049 61.057C594.897 52.1644 584.198 47.8769 574.449 50.5765C574.449 50.5765 574.449 50.5765 574.37 50.5765C571.358 51.688 568.901 53.8318 567.792 57.3253C567.554 58.0399 566.365 57.7223 566.603 57.0077C567.792 53.3554 570.328 50.9735 573.498 49.6237C570.09 38.508 559.628 30.6476 548.136 31.521C536.882 32.3944 527.688 41.2075 525.469 52.482C526.42 52.7202 527.371 53.0378 528.243 53.4348C531.809 55.1021 534.583 58.0399 536.565 61.454C536.961 62.1686 535.931 62.7243 535.535 62.0892C534.9 60.9776 534.108 59.866 533.236 58.9132C530.066 55.2609 525.469 53.0378 520.634 53.276C515.8 53.5142 510.569 56.1343 507.24 59.7866C503.515 63.9947 501.454 69.632 501.93 75.3486C502.405 80.9858 505.259 86.1467 509.618 89.5608C513.66 92.6573 518.415 94.0865 523.488 94.3247C526.816 94.4835 530.066 94.4835 533.395 94.5629C542.826 94.7217 552.258 94.7217 561.689 94.7217C565.81 94.7217 570.011 94.7217 574.132 94.7217C577.54 94.7217 581.107 95.0393 584.515 94.3247C595.531 92.181 603.774 81.7798 602.744 70.1083C602.664 67.0118 601.634 63.8359 600.049 61.057Z" fill="white"/>
<path d="M297.267 365.808C318.097 344.941 318.097 311.108 297.267 290.241C276.437 269.374 242.664 269.374 221.834 290.241C201.004 311.108 201.004 344.941 221.834 365.808C242.664 386.676 276.437 386.676 297.267 365.808Z" fill="#587BC9"/>
<path d="M297.528 309.652C295.467 306.079 291.663 303.935 287.542 303.856C286.591 303.856 285.719 303.856 284.768 303.856C280.012 303.856 275.257 303.856 270.502 303.856C266.935 303.856 263.369 303.856 259.881 303.856C256.711 303.856 253.541 305.126 251.322 307.508C249.182 309.811 248.231 312.669 248.231 315.765C246.328 315.765 244.347 315.765 242.445 315.765C238.878 315.765 235.312 315.765 231.825 315.765C228.654 315.765 225.484 317.036 223.265 319.418C221.046 321.8 220.095 324.737 220.095 327.993C220.095 330.295 220.095 332.598 220.095 334.9C220.095 336.965 219.936 339.188 220.412 341.173C221.363 345.143 224.612 348.398 228.575 349.509C230.081 349.906 231.587 349.906 233.172 349.906C241.652 349.906 250.212 349.906 258.692 349.906C258.93 349.906 259.168 349.906 259.406 349.906C263.606 349.827 267.569 347.604 269.551 343.793C270.264 342.522 270.581 341.173 270.739 339.823V339.744C270.819 339.188 270.819 338.632 270.898 337.997C271.294 337.997 271.69 337.997 272.087 337.997C277.001 337.997 281.915 337.997 286.828 337.997C287.066 337.997 287.304 337.997 287.542 337.997C291.742 337.917 295.705 335.694 297.687 331.883C298.955 329.501 299.034 327.119 299.034 324.499C299.034 322.038 299.034 319.576 299.034 317.115C299.034 314.495 298.875 311.954 297.528 309.652ZM260.357 320.926C260.357 320.926 260.436 320.926 260.357 320.926C260.753 321.006 260.991 321.085 261.308 321.164C261.466 321.244 261.625 321.244 261.783 321.323C261.863 321.323 261.863 321.323 261.942 321.323C261.942 321.323 262.021 321.323 262.021 321.403C262.338 321.561 262.655 321.72 262.972 321.958C262.972 321.958 263.289 322.197 263.369 322.197C263.448 322.276 263.527 322.276 263.527 322.355C263.923 322.673 264.24 323.07 264.557 323.388C264.557 323.388 264.557 323.467 264.637 323.467C264.716 323.626 264.874 323.864 265.033 324.023C265.112 324.182 265.508 324.976 265.35 324.737C265.508 325.055 265.588 325.372 265.667 325.769C265.667 325.928 265.746 326.087 265.746 326.246C265.746 326.246 265.825 326.643 265.825 326.722C265.905 328.39 265.825 330.057 265.825 331.724C265.825 332.042 265.825 332.439 265.825 332.757C265.667 332.757 265.508 332.757 265.271 332.757C265.191 332.757 265.112 332.757 264.954 332.757C263.448 332.757 261.942 332.757 260.436 332.757C260.198 332.757 259.961 332.757 259.723 332.757C259.485 332.757 259.168 332.757 258.93 332.677C259.089 332.677 258.296 332.518 258.138 332.518C257.9 332.439 257.662 332.36 257.504 332.28H257.424C256.949 332.042 256.553 331.804 256.156 331.566C256.156 331.566 256.077 331.486 255.998 331.486C255.839 331.407 255.76 331.248 255.601 331.169C255.364 330.93 255.047 330.613 254.809 330.375L254.73 330.295C254.73 330.295 254.73 330.216 254.65 330.216C254.571 330.057 254.492 329.978 254.413 329.819C254.333 329.66 254.175 329.422 254.096 329.263C254.016 329.184 254.016 329.104 253.937 328.945C253.779 328.548 253.699 328.151 253.62 327.754C253.62 327.675 253.62 327.596 253.541 327.516C253.541 327.516 253.462 327.119 253.462 327.04C253.462 326.802 253.462 326.563 253.462 326.246C253.462 324.499 253.462 322.752 253.462 321.006C254.967 321.006 256.473 321.006 257.979 321.006C258.375 321.006 258.851 321.006 259.247 321.006C259.326 321.006 259.406 321.006 259.406 321.006C259.802 320.926 260.04 320.926 260.357 320.926ZM265.746 339.029V339.108C265.746 339.108 265.746 339.108 265.746 339.188C265.667 339.664 265.508 340.141 265.35 340.617C265.35 340.617 265.35 340.696 265.271 340.776C265.191 340.935 265.112 341.093 265.033 341.252C264.874 341.49 264.716 341.808 264.557 342.046L264.32 342.364C264.24 342.443 264.082 342.602 264.003 342.681C263.844 342.84 263.686 342.999 263.527 343.158C263.448 343.237 263.369 343.237 263.289 343.316C263.289 343.316 263.289 343.316 263.21 343.396C262.893 343.634 262.497 343.872 262.18 344.031C262.1 344.031 262.021 344.11 261.942 344.11C261.863 344.11 261.546 344.269 261.546 344.269C261.149 344.428 260.832 344.507 260.436 344.587C260.357 344.587 260.357 344.587 260.278 344.587C260.278 344.587 260.198 344.587 260.119 344.587C259.881 344.587 259.644 344.587 259.406 344.587C251.876 344.587 244.347 344.587 236.818 344.587C235.312 344.587 233.806 344.587 232.3 344.587C232.062 344.587 231.825 344.587 231.587 344.587C231.349 344.587 231.032 344.587 230.794 344.507C230.953 344.507 230.16 344.349 230.002 344.349C229.764 344.269 229.526 344.19 229.368 344.11H229.288C228.813 343.872 228.417 343.634 228.02 343.396C228.02 343.396 227.941 343.316 227.862 343.316C227.703 343.237 227.624 343.078 227.465 342.999C227.228 342.761 226.911 342.443 226.673 342.205L226.594 342.125C226.594 342.125 226.594 342.046 226.514 342.046C226.435 341.887 226.356 341.808 226.277 341.649C226.197 341.49 226.039 341.252 225.96 341.093C225.88 341.014 225.88 340.935 225.801 340.776C225.643 340.379 225.563 339.982 225.484 339.585C225.484 339.505 225.484 339.426 225.405 339.347C225.405 339.347 225.326 338.95 225.326 338.87C225.326 338.632 225.326 338.394 225.326 338.076C225.326 336.012 225.326 334.027 225.326 331.963C225.326 330.295 225.246 328.707 225.326 327.04C225.326 326.881 225.326 326.722 225.326 326.563C225.326 326.484 225.326 326.484 225.326 326.405V326.325C225.405 325.928 225.484 325.611 225.643 325.214C225.643 325.134 225.801 324.737 225.801 324.817C225.88 324.737 225.88 324.579 225.96 324.499C226.039 324.34 226.118 324.182 226.277 324.023C226.356 323.943 226.594 323.546 226.673 323.467C226.911 323.229 227.069 322.991 227.307 322.752C227.465 322.594 227.545 322.514 227.703 322.355C227.703 322.355 227.782 322.276 227.862 322.197C228.179 322.038 228.417 321.8 228.734 321.641C228.892 321.561 229.051 321.482 229.13 321.403C229.13 321.403 229.526 321.244 229.685 321.244C230.081 321.164 230.398 321.006 230.794 321.006C230.873 321.006 230.873 321.006 230.953 321.006C231.191 321.006 231.428 321.006 231.666 321.006C231.745 321.006 231.745 321.006 231.825 321.006C232.221 321.006 232.617 321.006 233.093 321.006C234.836 321.006 236.58 321.006 238.324 321.006C241.652 321.006 244.981 321.006 248.231 321.006V321.085V321.403C248.231 321.958 248.231 322.435 248.231 322.991C248.231 325.055 248.072 327.278 248.548 329.263C249.499 333.233 252.748 336.488 256.711 337.6C258.217 337.997 259.723 337.997 261.308 337.997C262.655 337.997 263.923 337.997 265.271 337.997C265.429 337.997 265.588 337.997 265.825 337.997C265.825 338.076 265.825 338.235 265.825 338.314C265.825 338.553 265.746 338.791 265.746 339.029ZM293.882 319.894C293.882 321.958 293.882 324.023 293.882 326.087C293.882 326.166 293.882 326.325 293.882 326.405C293.882 326.643 293.882 326.881 293.882 327.119V327.199C293.882 327.199 293.882 327.199 293.882 327.278C293.803 327.754 293.644 328.231 293.486 328.707C293.486 328.707 293.486 328.787 293.407 328.866C293.327 329.025 293.248 329.184 293.169 329.342C293.01 329.581 292.852 329.898 292.693 330.136L292.456 330.454C292.376 330.533 292.218 330.692 292.139 330.772C291.98 330.93 291.822 331.089 291.663 331.248C291.584 331.327 291.505 331.327 291.425 331.407C291.425 331.407 291.425 331.407 291.346 331.486C291.029 331.724 290.633 331.963 290.316 332.121C290.236 332.121 290.157 332.201 290.078 332.201C289.999 332.201 289.682 332.36 289.682 332.36C289.285 332.518 288.968 332.598 288.572 332.677C288.493 332.677 288.493 332.677 288.414 332.677C288.414 332.677 288.334 332.677 288.255 332.677C288.017 332.677 287.779 332.677 287.542 332.677C282.39 332.677 277.238 332.677 272.087 332.677C271.69 332.677 271.373 332.677 270.977 332.677C270.977 331.407 270.977 330.136 270.977 328.866C270.977 326.246 270.819 323.705 269.471 321.403C267.411 317.83 263.606 315.686 259.485 315.607C258.534 315.607 257.662 315.607 256.711 315.607C255.601 315.607 254.492 315.607 253.382 315.607C253.382 315.448 253.382 315.21 253.382 315.051C253.382 314.892 253.382 314.733 253.382 314.574C253.382 314.495 253.382 314.495 253.382 314.416V314.336C253.462 313.939 253.541 313.622 253.699 313.225C253.699 313.145 253.858 312.748 253.858 312.828C253.937 312.748 253.937 312.589 254.016 312.51C254.096 312.351 254.175 312.192 254.333 312.034C254.413 311.954 254.65 311.557 254.73 311.478C254.967 311.24 255.126 311.001 255.364 310.763C255.522 310.604 255.601 310.525 255.76 310.366C255.76 310.366 255.839 310.287 255.918 310.208C256.235 310.049 256.473 309.811 256.79 309.652C256.949 309.572 257.107 309.493 257.187 309.414C257.187 309.414 257.583 309.255 257.741 309.255C258.138 309.175 258.455 309.017 258.851 309.017C258.93 309.017 258.93 309.017 259.009 309.017C259.247 309.017 259.485 309.017 259.723 309.017C259.802 309.017 259.802 309.017 259.881 309.017C260.278 309.017 260.674 309.017 261.149 309.017C262.893 309.017 264.637 309.017 266.38 309.017C271.136 309.017 275.97 309.017 280.726 309.017C282.469 309.017 284.292 309.017 286.036 309.017C286.432 309.017 286.908 309.017 287.304 309.017C287.383 309.017 287.462 309.017 287.462 309.017C287.78 309.017 288.097 309.017 288.334 309.096H288.414C288.731 309.175 289.048 309.255 289.285 309.334C289.444 309.414 289.602 309.414 289.761 309.493C289.84 309.493 289.84 309.493 289.919 309.493C289.919 309.493 289.999 309.493 289.999 309.572C290.316 309.731 290.633 309.89 290.95 310.128C290.95 310.128 291.267 310.366 291.346 310.366C291.425 310.446 291.505 310.446 291.505 310.525C291.901 310.843 292.218 311.24 292.535 311.557C292.535 311.557 292.535 311.637 292.614 311.637C292.693 311.795 292.852 312.034 293.01 312.192C293.09 312.351 293.486 313.145 293.327 312.907C293.486 313.225 293.565 313.542 293.644 313.939C293.644 314.098 293.724 314.257 293.724 314.416C293.724 314.416 293.803 314.813 293.803 314.892C293.961 316.559 293.882 318.227 293.882 319.894Z" fill="white"/>
<path d="M618.199 216.439C636.452 216.439 651.249 201.615 651.249 183.33C651.249 165.044 636.452 150.221 618.199 150.221C599.946 150.221 585.149 165.044 585.149 183.33C585.149 201.615 599.946 216.439 618.199 216.439Z" fill="#D7E8F4"/>
<path d="M218.43 341.887C218.43 341.649 218.351 341.49 218.272 341.252C217.638 339.346 215.577 338.95 214.626 337.441C214.15 336.806 214.388 334.344 213.12 334.662C212.645 334.741 210.98 335.059 209.316 335.377C207.968 335.138 206.542 334.98 205.194 334.662C201.786 333.789 195.525 327.913 192.355 331.566C191.721 332.28 191.087 332.995 190.77 333.868C190.532 334.583 190.453 335.377 190.453 336.171C190.453 336.806 190.294 337.759 190.691 338.156C191.087 338.632 192.672 338.791 193.227 339.029C194.97 339.585 196.635 340.14 198.378 340.696C200.043 341.252 201.945 342.046 202.42 343.793C202.5 344.19 202.5 344.587 202.658 344.904C202.817 345.301 203.134 345.619 203.451 345.937C204.64 347.048 205.908 348.08 207.255 348.874C209.712 350.303 213.754 348.398 216.132 347.445C216.687 347.207 217.321 346.969 217.717 346.492C218.43 345.778 218.509 344.666 218.589 343.634C218.509 343.078 218.51 342.443 218.43 341.887Z" fill="#EAC5B0"/>
<path d="M155.976 321.164C157.007 323.149 158.116 325.214 159.701 326.802C160.969 328.151 162.475 329.184 163.981 330.136C173.413 336.25 183.716 340.855 194.495 343.793C197.348 339.347 199.329 334.344 200.201 329.184C192.117 324.817 184.35 319.815 177.058 314.177C175.553 313.066 174.047 311.875 172.937 310.366C171.273 308.223 170.48 305.523 169.767 302.903C166.834 292.819 163.902 282.656 160.969 272.573C159.226 266.459 157.324 260.187 153.123 255.344C141.631 242.005 123.243 254.629 128.633 270.112C134.736 287.579 147.337 304.808 155.976 321.164Z" fill="#D1E7F5"/>
</g>
<defs>
<clipPath id="clip0">
<rect width="763" height="538" fill="white"/>
</clipPath>
</defs>
</svg>
